<svg width="500" height="500" viewBox="0 0 500 500" fill="none" xmlns="http://www.w3.org/2000/svg">
<rect width="500" height="500" fill="black"/>
<g clip-path="url(#clip0_9_2)">
<path d="M157.137 174.754L225.49 106.402C243.6 88.2914 272.924 88.1741 291.18 106.05L156.775 240.455C138.899 222.2 139.016 192.875 157.126 174.765L157.137 174.754Z" fill="#272727" stroke="black"/>
<path d="M303.8 117.988L168.695 253.093L202.071 286.469L337.176 151.364L303.8 117.988Z" fill="#E54C4C"/>
<path d="M298.885 213.515L163.781 348.62L197.157 381.996L332.262 246.891L298.885 213.515Z" fill="#E54C4C"/>
<path d="M209.068 393.913L344.173 258.808C362.596 277.232 362.596 307.137 344.173 325.561L275.82 393.913C257.397 412.337 227.491 412.337 209.068 393.913Z" fill="#FFDF57"/>
</g>
<defs>
<clipPath id="clip0_9_2">
<rect width="215.05" height="315.508" fill="white" transform="translate(142.95 92.2412)"/>
</clipPath>
</defs>
</svg>
